<?xml version="1.0" standalone="no"?>
<!DOCTYPE svg PUBLIC "-//W3C//DTD SVG 20010904//EN"
 "http://www.w3.org/TR/2001/REC-SVG-20010904/DTD/svg10.dtd">
<svg version="1.0" xmlns="http://www.w3.org/2000/svg"
 width="200.000000pt" height="200.000000pt" viewBox="0 0 200.000000 200.000000"
 preserveAspectRatio="xMidYMid meet">
<metadata>
Created by potrace 1.14, written by Peter Selinger 2001-2017
</metadata>
<g transform="translate(0.000000,200.000000) scale(0.100000,-0.100000)"
fill="#000000" stroke="none">
<path d="M965 1635 c-126 -27 -248 -125 -310 -247 l-35 -70 -70 -3 c-161 -7
-296 -118 -336 -275 -43 -169 32 -336 188 -421 l63 -34 216 -3 c192 -3 217 -2
229 13 20 24 20 41 2 59 -14 12 -58 15 -222 18 -234 3 -251 8 -327 91 -153
166 -46 440 182 462 71 7 120 -6 185 -50 29 -19 58 -35 65 -35 17 0 45 27 45
44 0 20 -41 61 -88 86 -47 27 -48 35 -5 103 79 125 210 195 346 184 176 -14
303 -123 343 -294 14 -61 7 -75 -46 -97 -72 -30 -137 -108 -126 -150 11 -44
45 -37 101 19 74 75 165 95 253 55 81 -37 121 -99 131 -203 5 -60 9 -71 29
-78 17 -6 27 -4 41 10 25 25 22 129 -7 193 -41 94 -139 171 -235 184 -41 6
-43 8 -45 42 -4 49 -38 145 -69 195 -54 86 -156 164 -251 194 -65 20 -175 24
-247 8z"/>
<path d="M1465 933 c-55 -30 -85 -80 -85 -142 0 -34 -5 -44 -34 -66 l-35 -26
-29 21 c-100 74 -240 13 -256 -111 -8 -71 29 -132 101 -165 46 -20 83 -18 135
10 l45 24 36 -21 c33 -18 37 -26 37 -60 0 -131 150 -208 253 -129 98 74 83
223 -26 272 -50 23 -116 19 -154 -8 l-29 -20 -38 23 c-31 19 -39 30 -40 53 -1
25 6 35 40 56 l41 26 39 -21 c112 -58 245 34 231 159 -12 110 -136 177 -232
125z m131 -101 c20 -26 17 -63 -8 -89 -41 -44 -118 -18 -118 41 0 75 82 106
126 48z m-361 -192 c28 -31 28 -68 1 -95 -29 -29 -65 -32 -95 -7 -28 22 -34
60 -15 90 28 42 77 48 109 12z m349 -191 c50 -39 23 -119 -42 -121 -42 -1 -72
26 -72 66 1 67 61 97 114 55z"/>
</g>
</svg>
